<?xml version="1.0" standalone="no"?>
<!DOCTYPE svg PUBLIC "-//W3C//DTD SVG 20010904//EN"
 "http://www.w3.org/TR/2001/REC-SVG-20010904/DTD/svg10.dtd">
<svg version="1.0" xmlns="http://www.w3.org/2000/svg"
 width="64.000000pt" height="64.000000pt" viewBox="0 0 64.000000 64.000000"
 preserveAspectRatio="xMidYMid meet">

<g transform="translate(0.000000,64.000000) scale(0.100000,-0.100000)"
fill="#000000" stroke="none">
<path d="M490 610 c0 -5 5 -10 10 -10 6 0 10 5 10 10 0 6 -4 10 -10 10 -5 0
-10 -4 -10 -10z"/>
<path d="M436 601 c-4 -5 -2 -12 3 -15 5 -4 12 -2 15 3 4 5 2 12 -3 15 -5 4
-12 2 -15 -3z"/>
<path d="M546 601 c-4 -5 -2 -12 3 -15 5 -4 12 -2 15 3 4 5 2 12 -3 15 -5 4
-12 2 -15 -3z"/>
<path d="M445 555 c-31 -30 -32 -73 -4 -110 18 -22 20 -29 8 -36 -10 -6 -11
-11 -3 -16 6 -5 13 -16 17 -25 4 -12 17 -18 37 -18 20 0 33 6 37 18 4 9 11 20
17 25 8 5 7 10 -3 16 -12 7 -10 14 8 36 43 56 9 135 -59 135 -19 0 -40 -9 -55
-25z m95 -15 c11 -11 20 -27 20 -36 0 -25 -44 -94 -60 -94 -16 0 -60 69 -60
94 0 22 36 56 60 56 11 0 29 -9 40 -20z m-20 -160 c0 -5 -9 -10 -20 -10 -11 0
-20 5 -20 10 0 6 9 10 20 10 11 0 20 -4 20 -10z"/>
<path d="M470 489 c0 -4 5 -11 10 -14 6 -3 10 -15 10 -26 0 -10 5 -19 10 -19
6 0 10 9 10 19 0 11 5 23 10 26 19 12 10 22 -20 22 -16 0 -30 -4 -30 -8z"/>
<path d="M396 561 c-4 -5 -2 -12 3 -15 5 -4 12 -2 15 3 4 5 2 12 -3 15 -5 4
-12 2 -15 -3z"/>
<path d="M586 561 c-4 -5 -2 -12 3 -15 5 -4 12 -2 15 3 4 5 2 12 -3 15 -5 4
-12 2 -15 -3z"/>
<path d="M380 500 c0 -5 5 -10 10 -10 6 0 10 5 10 10 0 6 -4 10 -10 10 -5 0
-10 -4 -10 -10z"/>
<path d="M600 500 c0 -5 5 -10 10 -10 6 0 10 5 10 10 0 6 -4 10 -10 10 -5 0
-10 -4 -10 -10z"/>
<path d="M106 464 c-12 -11 -16 -36 -16 -96 0 -74 -2 -83 -32 -125 -31 -43
-33 -50 -33 -134 0 -55 4 -88 10 -86 6 2 10 41 10 88 0 67 4 90 20 114 l20 29
3 -47 c3 -52 16 -60 34 -22 6 14 15 25 20 25 11 0 10 -7 -7 -40 -12 -23 -13
-34 -3 -55 8 -19 8 -31 0 -50 -14 -31 -15 -45 -4 -45 12 0 32 47 32 75 0 24 2
25 69 25 91 0 101 10 101 101 0 76 8 84 47 47 13 -12 26 -18 30 -15 10 11 -38
57 -59 57 -16 0 -18 9 -18 69 0 95 -7 101 -120 101 -67 0 -92 -4 -104 -16z
m202 -26 c3 -16 -7 -18 -97 -18 -78 0 -101 3 -101 13 0 25 13 28 104 25 77 -3
91 -6 94 -20z m2 -129 l0 -91 -100 4 -100 3 0 88 0 87 100 0 100 0 0 -91z m-2
-136 c-3 -28 -4 -28 -85 -31 l-83 -3 18 31 c16 29 20 30 85 30 l68 0 -3 -27z"/>
<path d="M182 340 c-26 -24 -28 -52 -6 -74 30 -31 84 -9 84 34 0 18 -35 60
-50 60 -3 0 -16 -9 -28 -20z m28 -40 c5 0 10 8 13 18 4 16 4 16 12 0 10 -26
-1 -48 -25 -48 -24 0 -35 22 -25 48 8 16 8 16 12 0 3 -10 8 -18 13 -18z"/>
<path d="M200 170 c0 -5 5 -10 10 -10 6 0 10 5 10 10 0 6 -4 10 -10 10 -5 0
-10 -4 -10 -10z"/>
<path d="M396 451 c-4 -5 -2 -12 3 -15 5 -4 12 -2 15 3 4 5 2 12 -3 15 -5 4
-12 2 -15 -3z"/>
<path d="M586 451 c-4 -5 -2 -12 3 -15 5 -4 12 -2 15 3 4 5 2 12 -3 15 -5 4
-12 2 -15 -3z"/>
<path d="M490 310 c0 -11 5 -20 10 -20 6 0 10 9 10 20 0 11 -4 20 -10 20 -5 0
-10 -9 -10 -20z"/>
<path d="M451 256 c-87 -48 -50 -186 49 -186 51 0 100 49 100 99 0 75 -83 124
-149 87z m104 -31 c50 -49 15 -135 -55 -135 -41 0 -80 39 -80 80 0 41 39 80
80 80 19 0 40 -9 55 -25z"/>
<path d="M454 206 c-10 -8 -16 -18 -11 -22 4 -4 13 -2 19 4 15 15 61 15 76 0
6 -6 15 -8 19 -4 12 11 -27 36 -57 36 -14 0 -35 -6 -46 -14z"/>
<path d="M475 170 c-4 -6 7 -10 25 -10 18 0 29 4 25 10 -3 6 -15 10 -25 10
-10 0 -22 -4 -25 -10z"/>
<path d="M490 130 c0 -5 5 -10 10 -10 6 0 10 5 10 10 0 6 -4 10 -10 10 -5 0
-10 -4 -10 -10z"/>
</g>
</svg>
